<svg width="324" height="85" viewBox="0 0 324 85" fill="none" xmlns="http://www.w3.org/2000/svg">
<g id="Frame 4032">
<rect x="0.904785" y="0.385315" width="322.191" height="84.0141" rx="35" fill="white"/>
<path id="Create groups" opacity="0.98" d="M61.4867 54.9213C67.5347 54.9484 72.2886 50.9697 73.1153 45.0214L67.9634 44.9983C67.3726 48.2916 64.8342 50.5843 61.5703 50.5696C57.6343 50.5519 54.9924 47.404 55.0127 42.8921C55.0328 38.4121 57.7027 35.3201 61.6387 35.3378C64.9026 35.3524 67.4524 37.6359 67.9816 40.9343L73.1335 40.9574C72.36 35.0659 67.6421 31.0127 61.5942 30.9855C55.1303 30.9565 50.0509 36.1498 50.0207 42.8697C49.9904 49.6216 55.0228 54.8923 61.4867 54.9213ZM80.5702 46.2389C80.5871 42.4629 83.1191 41.5783 86.8938 41.8832L86.9145 37.2752C84.1625 37.2629 81.5006 38.563 80.2429 40.7333L80.2577 37.4374L76.1617 37.419L76.085 54.5068L80.533 54.5268L80.5702 46.2389ZM96.445 54.8862C100.605 54.9049 103.591 52.7103 104.568 48.8426L100.152 48.8228C99.6327 50.5165 98.3164 51.4706 96.3644 51.4618C94.0924 51.4516 92.7553 49.9096 92.4798 47.1243L104.608 47.1788C105.433 41.6144 101.868 37.2144 96.4604 37.1901C91.5325 37.168 87.9639 40.864 87.941 45.9519C87.917 51.2959 91.3251 54.8632 96.445 54.8862ZM96.3498 40.4536C98.4618 40.4631 99.799 41.9731 99.9164 44.3417L92.5564 44.3086C92.9518 41.7824 94.2698 40.4443 96.3498 40.4536ZM117.729 54.6938L121.345 54.71L121.394 43.9581C121.412 39.7661 118.799 37.2904 114.32 37.2703C110.192 37.2517 107.332 39.7989 107.058 43.7337L111.058 43.7517C111.227 41.8324 112.384 40.7176 114.304 40.7262C116.16 40.7346 117.243 41.8594 117.234 43.7794L117.23 44.8034C116.174 44.6707 115.343 44.6029 114.383 44.5986C109.391 44.5762 106.695 46.3561 106.68 49.6841C106.665 52.8841 109.024 54.9747 112.576 54.9906C114.912 55.0011 116.612 54.1767 117.739 52.5818L117.729 54.6938ZM110.872 49.5749C110.879 48.0389 112.131 47.2445 114.659 47.2559C115.427 47.2593 116.162 47.3266 117.218 47.4914L117.212 48.7074C117.203 50.6914 115.822 51.9332 113.55 51.923C111.886 51.9155 110.866 51.0149 110.872 49.5749ZM135.572 50.4538C134.93 50.8029 134.161 50.9915 133.329 50.9877C131.729 50.9806 130.837 50.1766 130.846 48.1926L130.876 41.4726L135.772 41.4946L135.789 37.6867L130.893 37.6647L130.916 32.6087L126.5 32.5889L126.477 37.6449L123.021 37.6293L123.004 41.4373L126.46 41.4528L126.425 49.1967C126.408 53.0367 128.607 55.0626 132.127 55.0784C133.439 55.0843 134.464 54.8649 135.554 54.3258L135.572 50.4538ZM145.476 55.1063C149.636 55.125 152.622 52.9304 153.599 49.0627L149.183 49.0429C148.663 50.7366 147.347 51.6907 145.395 51.6819C143.123 51.6717 141.786 50.1297 141.511 47.3444L153.638 47.3989C154.463 41.8345 150.899 37.4345 145.491 37.4102C140.563 37.3881 136.995 41.0841 136.972 46.1721C136.948 51.516 140.356 55.0833 145.476 55.1063ZM145.381 40.6737C147.493 40.6832 148.83 42.1932 148.947 44.5618L141.587 44.5288C141.983 42.0025 143.301 40.6644 145.381 40.6737ZM174.149 55.427C181.477 55.4599 186.045 50.1044 185.791 42.6152L173.951 42.562L173.934 46.434L180.59 46.4639C179.937 49.309 177.784 51.3153 174.392 51.3001C169.784 51.2794 167.335 47.8764 167.355 43.4604C167.377 38.5325 170.205 35.8251 173.917 35.8418C176.989 35.8556 179.093 37.6251 179.787 39.9642L185.515 39.9899C184.033 34.9912 179.889 31.5166 174.065 31.4904C167.345 31.4603 162.394 36.5261 162.364 43.31C162.332 50.4139 167.493 55.3972 174.149 55.427ZM193.225 46.7446C193.242 42.9686 195.774 42.084 199.549 42.3889L199.57 37.781C196.818 37.7686 194.156 39.0687 192.898 41.2391L192.913 37.9431L188.817 37.9247L188.74 55.0125L193.188 55.0325L193.225 46.7446ZM209.228 55.4245C214.188 55.4468 217.917 51.5595 217.94 46.5995C217.962 41.6076 214.268 37.719 209.308 37.6967C204.348 37.6744 200.618 41.5297 200.596 46.5217C200.574 51.4816 204.268 55.4022 209.228 55.4245ZM209.246 51.4886C207.038 51.4786 205.158 49.7102 205.172 46.5422C205.186 43.3742 207.082 41.6547 209.29 41.6646C211.498 41.6746 213.378 43.411 213.364 46.579C213.35 49.747 211.454 51.4985 209.246 51.4886ZM231.172 48.0029C231.162 50.3069 229.62 51.58 228.02 51.5728C226.228 51.5648 225.049 50.5035 225.06 48.1035L225.104 38.0876L220.657 38.0676L220.608 48.9475C220.588 53.3955 223.074 55.4867 226.498 55.502C228.674 55.5118 230.567 54.4643 231.502 52.9645L231.492 55.2045L235.556 55.2227L235.632 38.1349L231.216 38.115L231.172 48.0029ZM256.646 46.7733C256.669 41.7493 253.71 37.896 249.102 37.8753C246.926 37.8656 245.034 38.8491 243.714 40.6672L243.725 38.1712L239.629 38.1528L239.524 61.4166L243.972 61.4365L244.01 53.0526C245.282 54.7224 247.007 55.5941 249.023 55.6032C253.631 55.6238 256.624 51.8292 256.646 46.7733ZM252.07 46.7527C252.056 50.0167 250.224 51.6405 248.048 51.6307C245.872 51.621 244.056 49.9488 244.07 46.7168C244.085 43.4849 245.917 41.7971 248.092 41.8068C250.268 41.8166 252.085 43.5528 252.07 46.7527ZM273.915 49.9228C273.926 47.4589 272.237 45.9153 268.911 45.2603L265.618 44.6375C264.084 44.3427 263.381 43.9235 263.386 42.8995C263.391 41.8115 264.482 41.2084 266.114 41.2157C268.002 41.2242 269.245 42.2538 269.397 43.9185L273.653 43.9376C273.35 40.2562 270.416 37.971 266.128 37.9518C261.872 37.9327 259.142 40.1284 259.128 43.2964C259.116 45.9524 260.965 47.6567 264.034 48.2145L267.104 48.8043C268.734 49.1316 269.436 49.5827 269.431 50.6707C269.426 51.8867 268.111 52.4248 266.383 52.4171C264.175 52.4071 262.676 51.2804 262.652 49.5203L258.396 49.5012C258.731 53.3107 261.441 55.6589 266.305 55.6807C271.169 55.7026 273.898 53.5068 273.915 49.9228Z" fill="#3A1BEA" fill-opacity="0.87"/>
</g>
</svg>
