<svg width="408" height="86" viewBox="0 0 408 86" fill="none" xmlns="http://www.w3.org/2000/svg">
<g id="Frame 4036">
<rect x="0.699707" y="0.96283" width="407.19" height="84.3957" rx="35" fill="white"/>
<path id="Share subscriptions" opacity="0.98" d="M68.7718 47.9163C68.787 44.5244 66.6194 42.6586 62.591 41.8405L58.6586 41.0229C56.9961 40.6954 55.5591 40.0169 55.5661 38.449C55.5733 36.849 56.9234 35.511 59.2913 35.5217C61.7233 35.5326 63.38 37.172 63.5292 39.5727L68.4571 39.5948C68.1587 34.7935 64.3962 31.7685 59.2443 31.7454C54.2843 31.7231 50.6551 34.6509 50.6368 38.7468C50.6197 42.5548 53.2992 44.4548 56.7841 45.1425L60.5568 45.8954C62.507 46.2882 63.6231 47.1572 63.6167 48.5972C63.6083 50.4532 61.8435 51.5333 59.3795 51.5222C56.4035 51.5089 54.7789 49.8695 54.6622 47.341L49.7343 47.3189C50.0644 52.1844 53.6665 55.3046 59.4584 55.3306C65.2183 55.3565 68.7521 52.3003 68.7718 47.9163ZM76.4322 45.7747C76.4446 43.0227 77.9549 41.6215 79.7149 41.6294C81.7308 41.6385 82.7165 43.0509 82.7052 45.5789L82.6624 55.1148L87.0783 55.1346L87.1279 44.0947C87.1464 39.9667 84.7885 37.7161 81.3645 37.7008C79.1245 37.6907 77.6481 38.6761 76.4571 40.2388L76.4936 32.1108L72.0456 32.0909L71.9425 55.0666L76.3904 55.0866L76.4322 45.7747ZM101.087 55.1975L104.703 55.2137L104.751 44.4618C104.77 40.2699 102.157 37.7941 97.6771 37.774C93.5491 37.7555 90.6897 40.3027 90.416 44.2375L94.416 44.2554C94.5846 42.3362 95.7416 41.2213 97.6616 41.23C99.5176 41.2383 100.601 42.3632 100.592 44.2831L100.587 45.3071C99.5319 45.1744 98.7002 45.1067 97.7402 45.1024C92.7483 45.0799 90.0522 46.8599 90.0373 50.1878C90.0229 53.3878 92.3816 55.4784 95.9335 55.4943C98.2695 55.5048 99.9692 54.6805 101.096 53.0855L101.087 55.1975ZM94.2298 50.0786C94.2367 48.5427 95.4883 47.7483 98.0163 47.7596C98.7843 47.7631 99.52 47.8304 100.575 47.9951L100.57 49.2111C100.561 51.1951 99.1793 52.4369 96.9073 52.4267C95.2433 52.4192 94.2234 51.5186 94.2298 50.0786ZM113.021 46.963C113.038 43.187 115.57 42.3024 119.345 42.6073L119.365 37.9994C116.613 37.987 113.951 39.2871 112.694 41.4574L112.709 38.1615L108.613 38.1431L108.536 55.2309L112.984 55.2509L113.021 46.963ZM128.896 55.6103C133.056 55.629 136.042 53.4344 137.019 49.5667L132.603 49.5469C132.083 51.2406 130.767 52.1947 128.815 52.1859C126.543 52.1757 125.206 50.6337 124.931 47.8484L137.059 47.9029C137.884 42.3385 134.319 37.9385 128.911 37.9142C123.983 37.8921 120.415 41.5881 120.392 46.6761C120.368 52.02 123.776 55.5873 128.896 55.6103ZM128.801 41.1777C130.913 41.1872 132.25 42.6972 132.367 45.0658L125.007 45.0328C125.403 42.5065 126.721 41.1684 128.801 41.1777ZM164.74 48.3472C164.755 44.9552 162.587 43.0894 158.559 42.2713L154.626 41.4537C152.964 41.1262 151.527 40.4478 151.534 38.8798C151.541 37.2798 152.891 35.9418 155.259 35.9525C157.691 35.9634 159.348 37.6028 159.497 40.0035L164.425 40.0257C164.126 35.2243 160.364 32.1993 155.212 32.1762C150.252 32.154 146.623 35.0817 146.605 39.1777C146.587 42.9856 149.267 44.8857 152.752 45.5733L156.525 46.3263C158.475 46.719 159.591 47.588 159.584 49.028C159.576 50.884 157.811 51.9641 155.347 51.953C152.371 51.9397 150.747 50.3004 150.63 47.7718L145.702 47.7497C146.032 52.6152 149.634 55.7354 155.426 55.7614C161.186 55.7873 164.72 52.7311 164.74 48.3472ZM178.186 48.3435C178.176 50.6475 176.634 51.9206 175.034 51.9134C173.242 51.9054 172.063 50.8441 172.074 48.4441L172.119 38.4282L167.671 38.4082L167.622 49.2881C167.602 53.7361 170.089 55.8272 173.513 55.8426C175.688 55.8524 177.581 54.8049 178.516 53.305L178.506 55.545L182.57 55.5633L182.647 38.4754L178.231 38.4556L178.186 48.3435ZM203.66 47.1139C203.683 42.0579 200.724 38.2366 196.116 38.2159C194.068 38.2067 192.337 39.0629 191.081 40.7213L191.117 32.6254L186.669 32.6054L186.566 55.5812L190.662 55.5996L190.673 53.1356C191.977 54.9335 193.829 55.9338 196.037 55.9437C200.645 55.9644 203.638 52.1058 203.66 47.1139ZM199.085 47.0933C199.07 50.2933 197.239 51.9811 195.063 51.9713C192.855 51.9614 191.07 50.2254 191.085 46.9934C191.099 43.7614 192.963 42.1378 195.107 42.1474C197.283 42.1572 199.099 43.8294 199.085 47.0933ZM220.929 50.2634C220.94 47.7994 219.251 46.2558 215.926 45.6009L212.632 44.9781C211.098 44.6832 210.396 44.2641 210.4 43.2401C210.405 42.1521 211.496 41.549 213.128 41.5563C215.016 41.5648 216.259 42.5944 216.412 44.2591L220.668 44.2782C220.364 40.5968 217.43 38.3116 213.142 38.2923C208.886 38.2732 206.157 40.469 206.142 43.637C206.13 46.2929 207.979 47.9973 211.048 48.555L214.118 49.1448C215.748 49.4722 216.45 49.9233 216.445 51.0113C216.44 52.2273 215.125 52.7654 213.398 52.7576C211.19 52.7477 209.691 51.621 209.666 49.8609L205.411 49.8417C205.745 53.6513 208.455 55.9995 213.319 56.0213C218.183 56.0431 220.913 53.8474 220.929 50.2634ZM231.139 56.1013C235.715 56.1219 238.928 53.2242 239.462 48.5226L234.79 48.5016C234.523 50.8364 233.205 52.1745 231.157 52.1653C228.821 52.1549 227.389 50.2924 227.403 47.2204C227.417 44.1805 228.897 42.2991 231.201 42.3094C233.217 42.3185 234.587 43.7327 234.801 46.0056L239.473 46.0266C238.949 41.4162 235.667 38.3935 231.219 38.3735C226.419 38.3519 222.882 42.0801 222.859 47.2C222.836 52.416 226.211 56.0792 231.139 56.1013ZM246.77 47.5634C246.787 43.7874 249.319 42.9028 253.093 43.2077L253.114 38.5998C250.362 38.5874 247.7 39.8875 246.442 42.0579L246.457 38.7619L242.361 38.7435L242.284 55.8313L246.732 55.8513L246.77 47.5634ZM260.593 34.8573C260.6 33.2893 259.389 32.1639 257.629 32.156C255.901 32.1482 254.68 33.2628 254.673 34.8307C254.667 36.3347 255.878 37.4602 257.606 37.4679C259.366 37.4758 260.587 36.3613 260.593 34.8573ZM259.795 55.9099L259.872 38.8221L255.424 38.8021L255.347 55.89L259.795 55.9099ZM280.847 47.4604C280.87 42.4364 277.911 38.5831 273.303 38.5624C271.127 38.5526 269.235 39.5362 267.914 41.3542L267.926 38.8583L263.83 38.8399L263.725 62.1037L268.173 62.1236L268.211 53.7397C269.483 55.4094 271.208 56.2812 273.224 56.2902C277.831 56.3109 280.825 52.5163 280.847 47.4604ZM276.271 47.4398C276.257 50.7038 274.425 52.3276 272.249 52.3178C270.073 52.3081 268.257 50.6359 268.271 47.4039C268.286 44.1719 270.117 42.4841 272.293 42.4939C274.469 42.5037 276.286 44.2399 276.271 47.4398ZM294.115 51.744C293.473 52.0931 292.704 52.2816 291.872 52.2779C290.272 52.2707 289.38 51.4667 289.389 49.4827L289.419 42.7628L294.315 42.7848L294.332 38.9768L289.436 38.9548L289.459 33.8989L285.043 33.8791L285.02 38.935L281.564 38.9195L281.547 42.7275L285.003 42.743L284.968 50.4869C284.951 54.3269 287.15 56.3528 290.67 56.3686C291.982 56.3744 293.007 56.155 294.097 55.6159L294.115 51.744ZM302.218 35.0442C302.225 33.4762 301.014 32.3507 299.254 32.3428C297.526 32.3351 296.305 33.4496 296.298 35.0176C296.291 36.5216 297.502 37.647 299.23 37.6548C300.99 37.6627 302.211 36.5482 302.218 35.0442ZM301.419 56.0968L301.496 39.009L297.048 38.989L296.971 56.0768L301.419 56.0968ZM312.928 56.4685C317.888 56.4907 321.618 52.6034 321.64 47.6435C321.662 42.6515 317.968 38.7629 313.008 38.7406C308.048 38.7184 304.318 42.5737 304.296 47.5656C304.274 52.5256 307.968 56.4462 312.928 56.4685ZM312.946 52.5325C310.738 52.5226 308.858 50.7541 308.872 47.5862C308.886 44.4182 310.782 42.6987 312.99 42.7086C315.198 42.7185 317.078 44.455 317.064 47.6229C317.05 50.7909 315.154 52.5424 312.946 52.5325ZM328.93 46.9082C328.942 44.1562 330.452 42.755 332.212 42.7629C334.228 42.772 335.214 44.1844 335.203 46.7124L335.16 56.2483L339.576 56.2681L339.625 45.2282C339.644 41.1002 337.286 38.8496 333.862 38.8343C331.622 38.8242 329.857 39.8723 328.602 41.5627L328.613 39.1307L324.517 39.1123L324.44 56.2001L328.888 56.2201L328.93 46.9082ZM357.865 50.8781C357.876 48.4142 356.187 46.8706 352.862 46.2156L349.569 45.5928C348.034 45.298 347.332 44.8788 347.336 43.8548C347.341 42.7668 348.432 42.1637 350.064 42.171C351.952 42.1795 353.195 43.2091 353.348 44.8738L357.604 44.8929C357.3 41.2115 354.367 38.9263 350.079 38.9071C345.823 38.888 343.093 41.0837 343.078 44.2517C343.067 46.9077 344.915 48.612 347.984 49.1698L351.054 49.7596C352.684 50.0869 353.386 50.538 353.381 51.626C353.376 52.842 352.062 53.3801 350.334 53.3724C348.126 53.3624 346.627 52.2357 346.603 50.4756L342.347 50.4565C342.682 54.266 345.391 56.6142 350.255 56.636C355.119 56.6579 357.849 54.4621 357.865 50.8781Z" fill="#3A1BEA" fill-opacity="0.87"/>
</g>
</svg>
