<svg width="239" height="85" viewBox="0 0 239 85" fill="none" xmlns="http://www.w3.org/2000/svg">
<g id="Frame 4037">
<rect x="0.0244141" y="0.729248" width="238.192" height="83.637" rx="35" fill="white"/>
<path id="Split Bills" opacity="0.98" d="M68.0965 47.6828C68.1117 44.2908 65.9441 42.425 61.9157 41.607L57.9833 40.7893C56.3208 40.4618 54.8838 39.7834 54.8909 38.2154C54.898 36.6154 56.2481 35.2774 58.616 35.2881C61.048 35.299 62.7047 36.9384 62.8539 39.3391L67.7818 39.3613C67.4834 34.5599 63.7209 31.535 58.569 31.5118C53.609 31.4896 49.9799 34.4173 49.9615 38.5133C49.9444 42.3212 52.6239 44.2213 56.1088 44.9089L59.8815 45.6619C61.8317 46.0546 62.9478 46.9236 62.9414 48.3636C62.933 50.2196 61.1682 51.2997 58.7042 51.2886C55.7282 51.2753 54.1036 49.636 53.9869 47.1074L49.059 47.0853C49.3891 51.9508 52.9912 55.071 58.7831 55.097C64.5431 55.1229 68.0768 52.0667 68.0965 47.6828ZM88.3614 46.3657C88.3839 41.3418 85.4252 37.4884 80.8172 37.4678C78.6412 37.458 76.7488 38.4415 75.4286 40.2596L75.4398 37.7636L71.3439 37.7452L71.2394 61.009L75.6874 61.029L75.725 52.6451C76.9976 54.3148 78.7217 55.1865 80.7376 55.1956C85.3456 55.2163 88.3387 51.4217 88.3614 46.3657ZM83.7854 46.3452C83.7707 49.6091 81.9394 51.2329 79.7635 51.2232C77.5875 51.2134 75.771 49.5412 75.7855 46.3093C75.8 43.0773 77.6316 41.3895 79.8076 41.3993C81.9835 41.409 83.7998 43.1452 83.7854 46.3452ZM95.6532 54.9425L95.7563 31.9668L91.2764 31.9467L91.1732 54.9224L95.6532 54.9425ZM104.888 33.9278C104.895 32.3598 103.684 31.2344 101.924 31.2264C100.196 31.2187 98.9755 32.3332 98.9684 33.9012C98.9617 35.4052 100.173 36.5306 101.901 36.5384C103.661 36.5463 104.882 35.4318 104.888 33.9278ZM104.09 54.9804L104.167 37.8926L99.7186 37.8726L99.6419 54.9604L104.09 54.9804ZM118.691 50.7259C118.05 51.075 117.281 51.2636 116.449 51.2599C114.849 51.2527 113.957 50.4487 113.965 48.4647L113.996 41.7447L118.892 41.7667L118.909 37.9588L114.013 37.9368L114.035 32.8808L109.619 32.861L109.597 37.917L106.141 37.9014L106.124 41.7094L109.58 41.7249L109.545 49.4688C109.528 53.3088 111.727 55.3347 115.247 55.3505C116.559 55.3564 117.584 55.137 118.674 54.5979L118.691 50.7259ZM145.833 48.4157C145.845 45.8878 144.445 44.0575 141.889 43.15C143.942 42.1032 145.133 40.4125 145.143 38.3005C145.161 34.3646 142.194 32.1752 137.362 32.1535L128.722 32.1148L128.619 55.0905L137.611 55.1309C142.667 55.1536 145.814 52.6717 145.833 48.4157ZM136.961 35.9918C139.329 36.0024 140.541 37.0319 140.533 38.6638C140.526 40.3278 139.305 41.3464 136.937 41.3357L133.097 41.3185L133.121 35.9745L136.961 35.9918ZM137.272 45.2093C139.896 45.221 141.267 46.3792 141.258 48.2032C141.25 50.1552 139.868 51.301 137.244 51.2892L133.053 51.2704L133.08 45.1905L137.272 45.2093ZM154.2 34.1492C154.207 32.5812 152.996 31.4557 151.236 31.4478C149.508 31.4401 148.287 32.5546 148.28 34.1226C148.274 35.6266 149.485 36.752 151.213 36.7598C152.973 36.7677 154.194 35.6531 154.2 34.1492ZM153.402 55.2018L153.479 38.114L149.031 38.094L148.954 55.1818L153.402 55.2018ZM161.84 55.2397L161.943 32.2639L157.463 32.2438L157.36 55.2195L161.84 55.2397ZM170.309 55.2777L170.412 32.3019L165.932 32.2818L165.829 55.2576L170.309 55.2777ZM188.754 49.8884C188.765 47.4245 187.076 45.8809 183.751 45.2259L180.457 44.6031C178.923 44.3082 178.221 43.8891 178.225 42.8651C178.23 41.7771 179.321 41.174 180.953 41.1813C182.841 41.1898 184.084 42.2194 184.237 43.8841L188.493 43.9032C188.189 40.2218 185.255 37.9366 180.967 37.9174C176.712 37.8982 173.982 40.094 173.967 43.262C173.955 45.918 175.804 47.6223 178.873 48.1801L181.943 48.7698C183.573 49.0972 184.275 49.5483 184.27 50.6363C184.265 51.8523 182.951 52.3904 181.223 52.3826C179.015 52.3727 177.516 51.246 177.491 49.4859L173.236 49.4668C173.57 53.2763 176.28 55.6245 181.144 55.6463C186.008 55.6682 188.738 53.4724 188.754 49.8884Z" fill="#3A1BEA" fill-opacity="0.87"/>
</g>
</svg>
