<svg width="30" height="30" viewBox="0 0 30 30" fill="none" xmlns="http://www.w3.org/2000/svg">
<path fill-rule="evenodd" clip-rule="evenodd" d="M30 15C30 23.2843 23.2843 30 15 30C6.71573 30 0 23.2843 0 15C0 6.71573 6.71573 0 15 0C23.2843 0 30 6.71573 30 15ZM11.1655 12.1369C11.4642 12.0594 11.779 12.0184 12.1035 12.0184C13.9719 12.0184 15.4933 13.3801 15.4933 15.2209C15.4933 17.0618 13.9719 18.3983 12.1035 18.3983C11.9051 18.3983 11.7102 18.3832 11.5205 18.3541C12.3198 17.6117 12.8156 16.5858 12.8156 15.4244C12.8156 14.0507 12.1881 12.8846 11.1655 12.1369ZM9.14064 13.5998C9.93398 13.8871 10.4929 14.5724 10.4929 15.4244C10.4929 16.1956 10.035 16.823 9.35984 17.1449C8.93804 16.6216 8.68706 15.9621 8.68706 15.2209C8.68706 14.6191 8.85256 14.0684 9.14064 13.5998ZM12.9362 8.47993C13.5874 8.274 14.2807 8.16292 15 8.16292C18.776 8.16292 21.8371 11.224 21.8371 15C21.8371 18.776 18.776 21.8371 15 21.8371C14.6316 21.8371 14.27 21.8079 13.9174 21.7518C16.869 20.9948 19.0699 18.4251 19.0699 15.2209C19.0699 11.5885 16.5112 8.84904 12.9362 8.47993Z" fill="white"/>
</svg>
