<svg width="30" height="31" viewBox="0 0 30 31" fill="none" xmlns="http://www.w3.org/2000/svg">
<g opacity="0.36">
<path fill-rule="evenodd" clip-rule="evenodd" d="M30 15.5C30 23.7843 23.2843 30.5 15 30.5C6.71573 30.5 0 23.7843 0 15.5C0 7.21573 6.71573 0.5 15 0.5C23.2843 0.5 30 7.21573 30 15.5ZM11.1655 12.6369C11.4642 12.5594 11.779 12.5184 12.1035 12.5184C13.9719 12.5184 15.4933 13.8801 15.4933 15.7209C15.4933 17.5618 13.9719 18.8983 12.1035 18.8983C11.9051 18.8983 11.7102 18.8832 11.5205 18.8541C12.3198 18.1117 12.8156 17.0858 12.8156 15.9244C12.8156 14.5507 12.1881 13.3846 11.1655 12.6369ZM9.14064 14.0998C9.93398 14.3871 10.4929 15.0724 10.4929 15.9244C10.4929 16.6956 10.035 17.323 9.35984 17.6449C8.93804 17.1216 8.68706 16.4621 8.68706 15.7209C8.68706 15.1191 8.85256 14.5684 9.14064 14.0998ZM12.9362 8.97993C13.5874 8.774 14.2807 8.66292 15 8.66292C18.776 8.66292 21.8371 11.724 21.8371 15.5C21.8371 19.276 18.776 22.3371 15 22.3371C14.6316 22.3371 14.27 22.3079 13.9174 22.2518C16.869 21.4948 19.0699 18.9251 19.0699 15.7209C19.0699 12.0885 16.5112 9.34904 12.9362 8.97993Z" fill="#020204"/>
</g>
</svg>
