<svg width="212" height="51" viewBox="0 0 212 51" fill="none" xmlns="http://www.w3.org/2000/svg">
<path fill-rule="evenodd" clip-rule="evenodd" d="M50 25.4995C50 39.3066 38.8071 50.4995 25 50.4995C11.1929 50.4995 0 39.3066 0 25.4995C0 11.6924 11.1929 0.499512 25 0.499512C38.8071 0.499512 50 11.6924 50 25.4995ZM18.6092 20.7277C19.107 20.5985 19.6317 20.5301 20.1725 20.5301C23.2865 20.5301 25.8221 22.7997 25.8221 25.8678C25.8221 28.9359 23.2865 31.1634 20.1725 31.1634C19.8418 31.1634 19.5171 31.1382 19.2008 31.0897C20.533 29.8524 21.3594 28.1425 21.3594 26.2069C21.3594 23.9174 20.3135 21.9738 18.6092 20.7277ZM15.2344 23.1658C16.5566 23.6447 17.4882 24.7868 17.4882 26.2069C17.4882 27.4922 16.725 28.5378 15.5997 29.0744C14.8967 28.2022 14.4784 27.1031 14.4784 25.8678C14.4784 24.8646 14.7543 23.9468 15.2344 23.1658ZM21.5603 14.6327C22.6456 14.2895 23.8012 14.1044 25 14.1044C31.2934 14.1044 36.3951 19.2062 36.3951 25.4995C36.3951 31.7929 31.2934 36.8946 25 36.8946C24.386 36.8946 23.7833 36.8461 23.1956 36.7526C28.1151 35.4909 31.7831 31.208 31.7831 25.8678C31.7831 19.8137 27.5186 15.2479 21.5603 14.6327Z" fill="#D2FC04"/>
<g clip-path="url(#clip0_53_2383)">
<path d="M69.6549 37.9419V25.4276C69.6549 22.3419 71.1549 21.0562 73.0406 21.0562C75.1406 21.0562 76.212 22.7276 76.212 25.3848V37.9419H83.5406V25.4276C83.5406 22.3419 85.0834 21.0562 86.9263 21.0562C89.0263 21.0562 90.0977 22.7276 90.0977 25.3848V37.9419H97.4263V23.1134C97.4263 17.4991 94.212 14.4562 89.6263 14.4562C86.2406 14.4562 84.1834 15.7848 82.212 18.0134C80.9263 15.6991 78.612 14.4562 75.6977 14.4562C72.6977 14.4562 70.812 15.6562 69.0549 17.7134V14.8848H62.3263V37.9419H69.6549ZM112.417 38.3276C118.16 38.3276 122.231 35.3705 123.645 30.0991H116.317C115.674 31.7705 114.303 32.6276 112.245 32.6276C109.888 32.6276 108.517 31.1705 108.131 28.2562H123.774C125.103 20.6705 120.003 14.4562 112.374 14.4562C105.517 14.4562 100.545 19.4705 100.545 26.3705C100.545 33.5276 105.303 38.3276 112.417 38.3276ZM112.203 19.8562C114.388 19.8562 115.845 21.3562 115.931 23.6705H108.217C108.731 21.0991 110.017 19.8562 112.203 19.8562ZM125.448 26.4134C125.448 33.0134 129.519 38.3705 135.734 38.3705C138.434 38.3705 140.705 37.2991 142.591 35.3276V37.9419H149.319V7.1705H141.991V17.0276C140.191 15.3134 138.134 14.4562 135.734 14.4562C129.519 14.4562 125.448 19.7276 125.448 26.4134ZM133.077 26.4134C133.077 22.7276 135.262 21.0562 137.491 21.0562C139.719 21.0562 141.905 22.6848 141.905 26.3705C141.905 30.0134 139.762 31.7705 137.491 31.7705C135.262 31.7705 133.077 30.0134 133.077 26.4134ZM162.423 9.52764C162.423 7.08478 160.495 5.32764 157.709 5.32764C154.923 5.32764 152.995 7.08478 152.995 9.52764C152.995 11.9276 154.923 13.6848 157.709 13.6848C160.495 13.6848 162.423 11.9276 162.423 9.52764ZM161.438 37.9419V14.8848H154.109V37.9419H161.438ZM179.747 37.9419H185.661V23.7134C185.661 17.8848 181.932 14.4562 175.589 14.4562C169.889 14.4562 165.904 17.9705 165.475 23.3276H172.075C172.332 21.3134 173.532 20.1991 175.547 20.1991C177.604 20.1991 178.761 21.3134 178.761 23.3276V24.4419C177.775 24.2705 176.618 24.1848 175.375 24.1848C168.775 24.1848 165.132 26.6276 165.132 31.1276C165.132 35.4991 168.347 38.3705 173.147 38.3705C176.104 38.3705 178.118 37.5562 179.747 35.7134V37.9419ZM172.032 30.9134C172.032 29.3276 173.361 28.5134 175.847 28.5134C176.789 28.5134 177.647 28.5991 178.761 28.8134V30.2705C178.761 32.1562 177.304 33.3134 174.861 33.3134C173.061 33.3134 172.032 32.4134 172.032 30.9134ZM211.548 14.8848H204.177L199.719 29.1562L194.748 14.8848H186.777L195.777 37.6848L192.562 46.2134H200.577L211.548 14.8848Z" fill="#D2FC04"/>
</g>
<defs>
<clipPath id="clip0_53_2383">
<rect width="150" height="41.4747" fill="white" transform="translate(62 4.76221)"/>
</clipPath>
</defs>
</svg>
